<svg
  width="700"
  height="200"
  viewBox="0 0 700 200"
  xmlns="http://www.w3.org/2000/svg"
>
  <style>
    * {
      font-family:
        -apple-system, BlinkMacSystemFont, "Segoe UI", "Noto Sans", Helvetica,
        Arial, sans-serif, "Apple Color Emoji", "Segoe UI Emoji";
    }
  </style>

  <rect
    class="card-surface"
    width="698"
    height="198"
    x="1"
    y="1"
    rx="5"
    ry="5"
    fill="#010409"
    stroke="#3D444D"
    stroke-width="1"
    stroke-opacity="1"
  />

  <text
    class="card-title"
    x="30"
    y="20"
    fill="#F0F6FC"
    font-size="22"
    text-anchor="start"
    dominant-baseline="hanging"
  >
    k3nsei (Piotr Stępniewski)
  </text>
  ;

  <g class="card-content" transform="translate(30, 46)" color="#9198A1">
    <rect
      class="card-content-surface"
      width="640"
      height="134"
      x="0"
      y="0"
      fill="none"
      stroke="none"
    />

    <g class="panel panel-details" transform="translate(0, 16)">
      <g class="section section-contributions" transform="translate(0, 0)">
        <use href="#icon-github" width="18" height="18" x="0" y="0" />
        <text
          x="22"
          y="14"
          fill="currentColor"
          font-size="14"
          text-anchor="start"
          dominant-baseline="auto"
        >
          2503 Contributions in 2026
        </text>
      </g>

      <g class="section section-repositories" transform="translate(0, 28)">
        <use href="#icon-book-marked" width="18" height="18" x="0" y="0" />
        <text
          x="22"
          y="14"
          fill="currentColor"
          font-size="14"
          text-anchor="start"
          dominant-baseline="auto"
        >
          24 Public Repos
        </text>
      </g>

      <g class="section section-date-joined" transform="translate(0, 56)">
        <use href="#icon-clock" width="18" height="18" x="0" y="0" />
        <text
          x="22"
          y="14"
          fill="currentColor"
          font-size="14"
          text-anchor="start"
          dominant-baseline="auto"
        >
          Joined GitHub 16 years ago
        </text>
      </g>

      <g class="section section-company" transform="translate(0, 84)">
        <use href="#icon-building" width="18" height="18" x="0" y="0" />
        <text
          x="22"
          y="14"
          fill="currentColor"
          font-size="14"
          text-anchor="start"
          dominant-baseline="auto"
        >
          @IdeaThenGo
        </text>
      </g>
    </g>

    <g class="panel panel-chart" transform="translate(-10, -20)">
      <use href="#chart-contributions" width="420" height="154" x="240" y="0" />
    </g>

    <!-- Definitions -->

    <defs>
      <symbol id="icon-book-marked" viewBox="0 0 24 24">
        <g
          class="icon icon-book-marked"
          fill="none"
          stroke="#4493F8"
          stroke-width="2"
          stroke-linecap="round"
          stroke-linejoin="round"
        >
          <path d="M10 2v8l3-3 3 3V2" />
          <path
            d="M4 19.5v-15A2.5 2.5 0 0 1 6.5 2H19a1 1 0 0 1 1 1v18a1 1 0 0 1-1 1H6.5a1 1 0 0 1 0-5H20"
          />
        </g>
      </symbol>
    </defs>

    <defs>
      <symbol id="icon-building" viewBox="0 0 24 24">
        <g
          class="icon icon-building"
          fill="none"
          stroke="#4493F8"
          stroke-width="2"
          stroke-linecap="round"
          stroke-linejoin="round"
        >
          <path d="M10 12h4" />
          <path d="M10 8h4" />
          <path d="M14 21v-3a2 2 0 0 0-4 0v3" />
          <path
            d="M6 10H4a2 2 0 0 0-2 2v7a2 2 0 0 0 2 2h16a2 2 0 0 0 2-2V9a2 2 0 0 0-2-2h-2"
          />
          <path d="M6 21V5a2 2 0 0 1 2-2h8a2 2 0 0 1 2 2v16" />
        </g>
      </symbol>
    </defs>

    <defs>
      <symbol id="icon-clock" viewBox="0 0 24 24">
        <g
          class="icon icon-clock"
          fill="none"
          stroke="#4493F8"
          stroke-width="2"
          stroke-linecap="round"
          stroke-linejoin="round"
        >
          <path d="M12 6v6l4 2" />
          <circle cx="12" cy="12" r="10" />
        </g>
      </symbol>
    </defs>

    <defs>
      <symbol id="icon-github" viewBox="0 0 24 24">
        <g
          class="icon icon-github"
          fill="none"
          stroke="#4493F8"
          stroke-width="2"
          stroke-linecap="round"
          stroke-linejoin="round"
        >
          <path
            d="M15 22v-4a4.8 4.8 0 0 0-1-3.5c3 0 6-2 6-5.5.08-1.25-.27-2.48-1-3.5.28-1.15.28-2.35 0-3.5 0 0-1 0-3 1.5-2.64-.5-5.36-.5-8 0C6 2 5 2 5 2c-.3 1.15-.3 2.35 0 3.5A5.403 5.403 0 0 0 4 9c0 3.5 3 5.5 6 5.5-.39.49-.68 1.05-.85 1.65-.17.6-.22 1.23-.15 1.85v4"
          />
          <path d="M9 18c-4.51 2-5-2-7-2" />
        </g>
      </symbol>
    </defs>

    <defs>
      <symbol id="icon-mail" viewBox="0 0 24 24">
        <g
          class="icon icon-mail"
          fill="none"
          stroke="#4493F8"
          stroke-width="2"
          stroke-linecap="round"
          stroke-linejoin="round"
        >
          <path d="m22 7-8.991 5.727a2 2 0 0 1-2.009 0L2 7" />
          <rect x="2" y="4" width="20" height="16" rx="2" />
        </g>
      </symbol>
    </defs>

    <defs>
      <symbol id="icon-map-pin" viewBox="0 0 24 24">
        <g
          class="icon icon-map-pin"
          fill="none"
          stroke="#4493F8"
          stroke-width="2"
          stroke-linecap="round"
          stroke-linejoin="round"
        >
          <path d="M10 12h4" />
          <path d="M10 8h4" />
          <path d="M14 21v-3a2 2 0 0 0-4 0v3" />
          <path
            d="M6 10H4a2 2 0 0 0-2 2v7a2 2 0 0 0 2 2h16a2 2 0 0 0 2-2V9a2 2 0 0 0-2-2h-2"
          />
          <path d="M6 21V5a2 2 0 0 1 2-2h8a2 2 0 0 1 2 2v16" />
        </g>
      </symbol>
    </defs>

    <defs>
      <symbol id="chart-contributions" viewBox="0 0 420 154">
        <rect
          class="chart-surface"
          width="420"
          height="154"
          x="0"
          y="0"
          fill="none"
          stroke="none"
        />

        <text
          class="title"
          x="366"
          y="0"
          fill="#9198A1"
          font-size="10"
          text-anchor="end"
          dominant-baseline="hanging"
        >
          contributions in the last year
        </text>

        <g class="chart" transform="translate(18, 21)" color="#0576FF">
          <path
            d="M0,106.486C10.192,97.526,20.384,88.566,30.575,88.566C40.767,88.566,50.959,98.043,61.151,98.043C71.014,98.043,80.877,31.015,90.74,31.015C100.932,31.015,111.123,50.314,121.315,50.314C131.178,50.314,141.041,48.648,150.904,45.317C161.096,41.875,171.288,26.708,181.479,26.708C191.671,26.708,201.863,64.96,212.055,64.96C221.26,64.96,230.466,59.791,239.671,59.791C249.863,59.791,260.055,75.471,270.247,75.471C280.11,75.471,289.973,62.726,299.836,61.169C310.027,59.561,320.219,60.365,330.411,58.757C340.274,57.201,350.137,31.53,360,5.858L360,112C350.137,112,340.274,112,330.411,112C320.219,112,310.027,112,299.836,112C289.973,112,280.11,112,270.247,112C260.055,112,249.863,112,239.671,112C230.466,112,221.26,112,212.055,112C201.863,112,191.671,112,181.479,112C171.288,112,161.096,112,150.904,112C141.041,112,131.178,112,121.315,112C111.123,112,100.932,112,90.74,112C80.877,112,71.014,112,61.151,112C50.959,112,40.767,112,30.575,112C20.384,112,10.192,112,0,112Z"
            fill="rgb(from currentColor r g b / 45%)"
            stroke="currentColor"
          />

          <g
            class="x-axis"
            transform="translate(0, 112)"
            color="#9198A1"
            fill="none"
            font-size="10"
            text-anchor="middle"
            dominant-baseline="hanging"
          >
            <line
              class="line"
              x1="0"
              x2="360"
              y1="0"
              y2="0"
              stroke="currentColor"
            />

            <g class="tick" transform="translate(0, 0)">
              <line class="mark" y2="6" stroke="currentColor" />
              <text class="label" y="9" fill="currentColor">25/07</text>
            </g>

            <g class="tick" transform="translate(61.150684931506845, 0)">
              <line class="mark" y2="6" stroke="currentColor" />
              <text class="label" y="9" fill="currentColor">25/09</text>
            </g>

            <g class="tick" transform="translate(121.31506849315069, 0)">
              <line class="mark" y2="6" stroke="currentColor" />
              <text class="label" y="9" fill="currentColor">25/11</text>
            </g>

            <g class="tick" transform="translate(181.47945205479454, 0)">
              <line class="mark" y2="6" stroke="currentColor" />
              <text class="label" y="9" fill="currentColor">26/01</text>
            </g>

            <g class="tick" transform="translate(239.67123287671234, 0)">
              <line class="mark" y2="6" stroke="currentColor" />
              <text class="label" y="9" fill="currentColor">26/03</text>
            </g>

            <g class="tick" transform="translate(299.83561643835617, 0)">
              <line class="mark" y2="6" stroke="currentColor" />
              <text class="label" y="9" fill="currentColor">26/05</text>
            </g>

            <g class="tick" transform="translate(360, 0)">
              <line class="mark" y2="6" stroke="currentColor" />
              <text class="label" y="9" fill="currentColor">26/07</text>
            </g>
          </g>

          <g
            class="y-axis"
            transform="translate(360, 0)"
            color="#9198A1"
            fill="none"
            font-size="10"
            text-anchor="start"
            dominant-baseline="middle"
          >
            <line
              class="line"
              x1="0"
              x2="0"
              y1="0"
              y2="112"
              stroke="currentColor"
            />

            <g class="tick" transform="translate(0,112)">
              <line class="mark" x2="6" stroke="currentColor" />
              <text class="label" x="9" fill="currentColor">0</text>
            </g>

            <g class="tick" transform="translate(0,94.76923076923077)">
              <line class="mark" x2="6" stroke="currentColor" />
              <text class="label" x="9" fill="currentColor">100</text>
            </g>

            <g class="tick" transform="translate(0,77.53846153846153)">
              <line class="mark" x2="6" stroke="currentColor" />
              <text class="label" x="9" fill="currentColor">200</text>
            </g>

            <g class="tick" transform="translate(0,60.30769230769231)">
              <line class="mark" x2="6" stroke="currentColor" />
              <text class="label" x="9" fill="currentColor">300</text>
            </g>

            <g class="tick" transform="translate(0,43.07692307692307)">
              <line class="mark" x2="6" stroke="currentColor" />
              <text class="label" x="9" fill="currentColor">400</text>
            </g>

            <g class="tick" transform="translate(0,25.84615384615384)">
              <line class="mark" x2="6" stroke="currentColor" />
              <text class="label" x="9" fill="currentColor">500</text>
            </g>

            <g class="tick" transform="translate(0,8.61538461538461)">
              <line class="mark" x2="6" stroke="currentColor" />
              <text class="label" x="9" fill="currentColor">600</text>
            </g>
          </g>
        </g>
      </symbol>
    </defs>
  </g>
</svg>
